<?xml version="1.0" standalone="yes"?>
<svg xmlns="http://www.w3.org/2000/svg" width="454" height="122">
<path style="fill:#fefefe; stroke:none;" d="M0 0L0 122L454 122L454 0L0 0z"/>
<path style="fill:#089aa0; stroke:none;" d="M18 3C18.9506 9.16071 23.8322 12.6822 27.9606 17C35.4965 24.8815 43.2743 32.7692 50.4244 41C53.269 44.2746 58.1419 51.3642 62.9992 51.3642C67.8265 51.3642 72.0225 44.0673 75.0147 41C84.3874 31.3919 105.315 16.3059 108 3L63 11.4213L18 3z"/>
<path style="fill:#9e9e9e; stroke:none;" d="M21.6667 3.33334L22.3333 3.66666L21.6667 3.33334M103.667 3.33334L104.333 3.66666L103.667 3.33334M17.3333 4.66666L17.6667 5.33334L17.3333 4.66666M26.6667 4.33334L27.3333 4.66666L26.6667 4.33334M98.6667 4.33334L99.3333 4.66666L98.6667 4.33334M31.6667 5.33334L32.3333 5.66666L31.6667 5.33334M93.6667 5.33334L94.3333 5.66666L93.6667 5.33334M36.6667 6.33334L37.3333 6.66666L36.6667 6.33334M88.6667 6.33334L89.3333 6.66666L88.6667 6.33334M107 6L108 7L107 6M41.6667 7.33334L42.3333 7.66666L41.6667 7.33334M83.6667 7.33334L84.3333 7.66666L83.6667 7.33334M46.6667 8.33334L47.3333 8.66666L46.6667 8.33334M78.6667 8.33334L79.3333 8.66666L78.6667 8.33334M51.6667 9.33334L52.3333 9.66666L51.6667 9.33334M73.6667 9.33334L74.3333 9.66666L73.6667 9.33334M56 10L57 11L56 10M68.6667 10.3333L69.3333 10.6667L68.6667 10.3333M61 11L62 12L61 11M63.6667 11.3333L64.3333 11.6667L63.6667 11.3333M26 15L27 16L26 15M5 16L4 21L5 21L7 17L5 16M27 16L28 17L27 16M118 16L109 26L118 16z"/>
<path style="fill:#565656; stroke:none;" d="M121 107L122 106L113.26 62L122 17L121 16C107.562 22.2664 94.5419 38.5874 84 49.0039C81.0538 51.915 73.3651 57.2863 73.9213 62C74.4493 66.4749 81.0082 71.0399 84 73.9961C94.5419 84.4126 107.562 100.734 121 107M5 17L12.9213 62L5 107C18.3438 103.255 31.6535 83.8402 42 74.7145C45.1032 71.9775 52.7932 66.5777 52.7932 62C52.7932 57.4223 45.1032 52.0225 42 49.2855C31.6536 40.1599 18.3438 20.7454 5 17z"/>
<path style="fill:#9e9e9e; stroke:none;" d="M28 17L29 18L28 17M29 18L30 19L29 18M30 19L31 20L30 19M121 19L121 22L122 22L121 19M31 20L32 21L31 20M94 20L95 21L94 20M12 21L13 22L12 21M93 21L94 22L93 21M13 22L14 23L13 22M92 22L93 23L92 22M5 23L5 26L6 26L5 23M14 23L15 24L14 23M91 23L92 24L91 23M15 24L16 25L15 24M90 24L91 25L90 24M120.333 24.6667L120.667 25.3333L120.333 24.6667M16 25L17 26L16 25M89 25L90 26L89 25M17 26L18 27L17 26M88 26L89 27L88 26M143 26L143 27L146 27L143 26z"/>
<path style="fill:#089aa0; stroke:none;" d="M159 60C153.987 60.7369 148.929 63.1274 144.043 60.5432C137.117 56.8801 133.856 42.0672 141.279 37.1644C146.43 33.7614 152.851 36.0809 158 38L161 29C152.273 25.7953 142.003 24.6321 134.043 30.6381C123.794 38.3715 124.427 58.6966 134.043 66.6065C141.513 72.7505 164.225 74.4344 159 60z"/>
<path style="fill:#9e9e9e; stroke:none;" d="M152.667 26.3333L153.333 26.6667L152.667 26.3333M181 26L181 27L186 27L181 26z"/>
<path style="fill:#565656; stroke:none;" d="M186 26.5949C157.746 27.7522 159.704 71.9047 188 70.9568C216.541 70.0006 214.976 25.4081 186 26.5949z"/>
<path style="fill:#9e9e9e; stroke:none;" d="M188 26L188 27L193 27L188 26M224 26L224 27L235 27L224 26M382 26L382 27L387 27L382 26z"/>
<path style="fill:#565656; stroke:none;" d="M401 68L398 60C393.359 61.2278 388.664 63.0149 384.015 60.6821C376.78 57.0512 374.375 44.5333 379.703 38.3032C387.097 29.6574 397.017 42.5529 401 29C391.658 26.0377 379.88 24.5177 372.214 32.213C360.634 43.8369 366.784 67.4731 383 70.5324C389.269 71.7151 395.086 69.8911 401 68z"/>
<path style="fill:#9e9e9e; stroke:none;" d="M390 26L390 27L394 27L390 26M18 27L19 28L18 27M139 27L140 28L139 27M157 27L158 28L157 27M178 27L179 28L178 27M195.667 27.3333L196.333 27.6667L195.667 27.3333M217 27L217 28L220 28L217 27z"/>
<path style="fill:#565656; stroke:none;" d="M215 28L216 70L225 70L225 54L239.329 68.9722L250 69L239 52C248.405 48.3232 251.364 35.2553 241.906 29.3673C234.334 24.6531 223.317 27.3436 215 28z"/>
<path style="fill:#9e9e9e; stroke:none;" d="M238 27L239 28L238 27M258 27L258 28C264.499 28 280.178 25.1044 284 31L285 31L285 27L258 27M289 27L289 28C296.782 28 320.581 24.1835 325 31L326 31L326 27L289 27M335 27L335 28L361 28L335 27M379 27L380 28L379 27M396.667 27.3333L397.333 27.6667L396.667 27.3333M409.667 27.3333L410.333 27.6667L409.667 27.3333z"/>
<path style="fill:#565656; stroke:none;" d="M407 28L407 70L417 70L417 53L435 53L435 70L445 70L445 27C432.207 27.5507 435 34.5276 435 45L417 45L417 27L407 28z"/>
<path style="fill:#9e9e9e; stroke:none;" d="M437 27L437 28L440 28L437 27M6 28L6 31L7 31L6 28M19 28L20 29L19 28M137 28L138 29L137 28M159 28L160 29L159 28M176 28L177 29L176 28M198 28L199 29L198 28M240 28L241 29L240 28M254 28L255 29L254 28z"/>
<path style="fill:#565656; stroke:none;" d="M255 70L285 70L285 61L265 61L265 53L282 53L282 45L265 45L265 36L284 36L284 28C277.56 28 260.713 24.9704 255.603 29.0278C252.67 31.3571 254.7 36.9286 254.91 40C255.59 49.9164 255 60.0603 255 70M289 28L289 36L302 36L303 70L312 70L312 36L325 36L325 28L289 28z"/>
<path style="fill:#9e9e9e; stroke:none;" d="M331 28L330 36L331 36L331 28z"/>
<path style="fill:#565656; stroke:none;" d="M362 70C361.956 57.6078 350.633 61 341 61L341 53L348.002 53C350.633 52.9998 364.615 51.7845 357.396 46.0278C350.451 40.4894 341.162 49.7111 341 36L361 36L361 28C354.551 28 337.725 24.9713 332.603 29.0278C327.775 32.8516 330.997 54.0611 331 60C331.001 62.6168 330.25 67.1087 332.603 68.9722C337.864 73.1387 355.364 70 362 70z"/>
<path style="fill:#9e9e9e; stroke:none;" d="M377 28L378 29L377 28M399 28L400 29L399 28M406 28L406 46L407 46L406 28M434 28L435 29L434 28M20 29L21 30L20 29M119.333 29.6667L119.667 30.3333L119.333 29.6667M135 29L136 30L135 29M174 29L175 30L174 29M242 29L243 30L242 29M375 29L376 30L375 29M21 30L22 31L21 30M201 30L202 31L201 30M400.333 30.6667L400.667 31.3333L400.333 30.6667M171 31L172 32L171 31M202 31L203 32L202 31M361 31L362 32L361 31M372 31L373 32L372 31M160 32L161 33L160 32M170 32L171 33L170 32M203 32L204 33L203 32M245 32L246 33L245 32M284 32L284 36L285 36L284 32M371 32L372 33L371 32M434 32L434 44L417 44L417 45L435 45L434 32M7.33333 33.6667L7.66667 34.3333L7.33333 33.6667M204 33L205 34L204 33M325 33L325 36L326 36L325 33M44 34L45 35L44 34M99 34L100 35L99 34M118.333 34.6667L118.667 35.3333L118.333 34.6667M159 34L160 35L159 34M399 34L400 35L399 34M45 35L46 36L45 35M98 35L99 36L98 35M129 35L130 36L129 35M146 35L146 36L151 36L146 35M168 35L169 36L168 35M181.667 35.3333L182.333 35.6667L181.667 35.3333z"/>
<path style="fill:#fefefe; stroke:none;" d="M183.019 35.4869C170.041 38.2674 176.224 66.1285 191.956 61.5664C204.573 57.9077 197.396 32.4063 183.019 35.4869z"/>
<path style="fill:#9e9e9e; stroke:none;" d="M189 35L190 36L189 35M226 35L225 46L226 46L228 36L226 35z"/>
<path style="fill:#fefefe; stroke:none;" d="M226 46C227.991 45.9587 230.008 45.9813 231.961 45.517C242.515 43.0074 231.774 31.3356 227.028 36.7816C225.197 38.8826 226 43.4268 226 46z"/>
<path style="fill:#9e9e9e; stroke:none;" d="M230 35L230 36L233 36L230 35M369 35L370 36L369 35M384 35L384 36L391 36L384 35M46 36L47 37L46 36M97 36L98 37L97 36M141 36L142 37L141 36M154 36L155 37L154 36M158 36L159 37L158 36M178 36L179 37L178 36M192 36L193 37L192 36M206 36L207 37L206 36M247.333 36.6667L247.667 37.3333L247.333 36.6667M254 36L254 68L255 68L254 36M312 36L312 70L313 70L312 36M341 36L341 44L342 44L341 36M380.667 36.3333L381.333 36.6667L380.667 36.3333M393.667 36.3333L394.333 36.6667L393.667 36.3333M47 37L48 38L47 37M96 37L97 38L96 37M128 37L129 38L128 37M139 37L140 38L139 37M167 37L168 38L167 37M193 37L194 38L193 37M368 37L369 38L368 37M379 37L380 38L379 37M396.667 37.3333L397.333 37.6667L396.667 37.3333M8.33333 38.6667L8.66667 39.3333L8.33333 38.6667M48 38L49 39L48 38M95 38L96 39L95 38M194 38L195 39L194 38M236 38L237 39L236 38M31 39L32 40L31 39M49 39L50 40L49 39M94 39L95 40L94 39M117.333 39.6667L117.667 40.3333L117.333 39.6667M166.333 39.6667L166.667 40.3333L166.333 39.6667M177 39L178 40L177 39M195 39L196 40L195 39M207 39L208 40L207 39M367.333 39.6667L367.667 40.3333L367.333 39.6667M378 39L379 40L378 39M32 40L33 41L32 40M75 40L76 41L75 40M93 40L94 41L93 40M127.333 40.6667L127.667 41.3333L127.333 40.6667M138 40L139 41L138 40M33 41L34 42L33 41M74 41L75 42L74 41M92 41L93 42L92 41M196 41L197 42L196 41M34 42L35 43L34 42M73 42L74 43L73 42M91 42L92 43L91 42M176 42L176 47L177 47L176 42M208 42L208 45L209 45L208 42M377 42L377 47L378 47L377 42M9.33333 43.6667L9.66667 44.3333L9.33333 43.6667M35 43L36 44L35 43M72 43L73 44L72 43M116 43L116 46L117 46L116 43M165 43L165 48L166 48L165 43M197.333 43.6667L197.667 44.3333L197.333 43.6667M236.333 43.6667L236.667 44.3333L236.333 43.6667M247.333 43.6667L247.667 44.3333L247.333 43.6667M366 43L366 48L367 48L366 43M36 44L37 45L36 44M71 44L72 45L71 44M265 44L265 45L282 45L265 44M342 44L342 45L359 46L342 44M37 45L38 46L37 45M70 45L71 46L70 45M137 45L137 52L138 52L137 45M232 45L232 46L235 46L232 45M38 46L39 47L38 46M126 46L126 52L127 52L126 46M215 46L215 70L216 70L215 46M246 46L247 47L246 46M282 46L282 52L283 52L282 46M302 46L302 70L303 70L302 46M39 47L40 48L39 47M10.3333 48.6667L10.6667 49.3333L10.3333 48.6667M115 48L115 51L116 51L115 48M165 49L165 54L166 54L165 49M366 49L366 54L367 54L366 49M176 50L176 53L177 53L176 50M242 50L243 51L242 50M377 50L377 53L378 53L377 50M81 51L82 52L81 51M241 51L242 52L241 51M11 52L11 55L12 55L11 52M62.6667 52.3333L63.3333 52.6667L62.6667 52.3333M80 52L81 53L80 52M208 52L208 55L209 55L208 52M239 52L240 53L239 52M358 52L359 53L358 52M79 53L80 54L79 53M114.333 53.6667L114.667 54.3333L114.333 53.6667M197 53L197 56L198 56L197 53M341 53L341 61L342 61L341 53M417 53L417 54C422.231 54 430.849 52.1401 434 57L435 57L435 53L417 53M78 54L79 55L78 54M138 54L139 55L138 54M225 54L225 70L226 70L225 54M229 54L230 55L229 54M240 54L241 55L240 54M61.6667 55.3333L62.3333 55.6667L61.6667 55.3333z"/>
<path style="fill:#565656; stroke:none;" d="M63 55L64 56L63 55z"/>
<path style="fill:#9e9e9e; stroke:none;" d="M64 55L65 56L64 55M77 55L78 56L77 55M177 55L178 56L177 55M241 55L242 56L241 55M378 55L379 56L378 55M49 56L50 57L49 56M59 56L60 57L59 56z"/>
<path style="fill:#030303; stroke:none;" d="M60.1481 57.0324C53.8499 60.6306 59.5359 70.3193 65.8519 66.8056C72.2855 63.2263 66.4881 53.4104 60.1481 57.0324z"/>
<path style="fill:#565656; stroke:none;" d="M66 56L67 57L66 56z"/>
<path style="fill:#9e9e9e; stroke:none;" d="M76 56L77 57L76 56M127 56L128 57L127 56M166.333 56.6667L166.667 57.3333L166.333 56.6667M230 56L231 57L230 56M367.333 56.6667L367.667 57.3333L367.333 56.6667M12 57L12 60L13 60L12 57M50 57L51 58L50 57z"/>
<path style="fill:#565656; stroke:none;" d="M58 57L59 58L58 57M67 57L68 58L67 57z"/>
<path style="fill:#9e9e9e; stroke:none;" d="M75 57L76 58L75 57M178 57L179 58L178 57M207.333 57.6667L207.667 58.3333L207.333 57.6667M231 57L232 58L231 57M379 57L380 58L379 57M51 58L52 59L51 58M57 58L58 59L57 58z"/>
<path style="fill:#565656; stroke:none;" d="M68 58L69 59L68 58z"/>
<path style="fill:#9e9e9e; stroke:none;" d="M74 58L75 59L74 58M113.333 58.6667L113.667 59.3333L113.333 58.6667M140 58L141 59L140 58M179 58L180 59L179 58M196 58L197 59L196 58M243 58L244 59L243 58M380 58L381 59L380 58M52 59L53 60L52 59M73 59L74 60L73 59M128 59L129 60L128 59M141 59L142 60L141 59M158 59L159 60L158 59M167 59L168 60L167 59M180 59L181 60L180 59M232 59L233 60L232 59M368.333 59.6667L368.667 60.3333L368.333 59.6667M381 59L382 60L381 59M397 59L398 60L397 59M53 60L54 61L53 60M69 60L69 64L70 64L69 60M72 60L72 63L73 63L72 60M143 60L144 61L143 60M155 60L156 61L155 60M181 60L182 61L181 60M195 60L196 61L195 60M206 60L207 61L206 60M382 60L383 61L382 60M395 60L396 61L395 60M398 60L399 61L398 60M56 61L57 62L56 61M129 61L130 62L129 61M145.667 61.3333L146.333 61.6667L145.667 61.3333M152 61L153 62L152 61M159 61L160 62L159 61M183 61L184 62L183 61M193 61L194 62L193 61M233 61L234 62L233 61M245 61L246 62L245 61M285 61L285 70L286 70L285 61M361 61L362 62L361 61M385.667 61.3333L386.333 61.6667L385.667 61.3333M391 61L391 62L394 62L391 61M399.333 61.6667L399.667 62.3333L399.333 61.6667M187.667 62.3333L188.333 62.6667L187.667 62.3333M205 62L206 63L205 62M234 62L235 63L234 62M53 63L54 64L53 63M73 63L74 64L73 63M113.333 63.6667L113.667 64.3333L113.333 63.6667M160 63L161 64L160 63M169 63L170 64L169 63M204 63L205 64L204 63M370 63L371 64L370 63M12 64L12 67L13 67L12 64M52 64L53 65L52 64z"/>
<path style="fill:#565656; stroke:none;" d="M57 64L58 65L57 64z"/>
<path style="fill:#9e9e9e; stroke:none;" d="M74 64L75 65L74 64M131 64L132 65L131 64M170 64L171 65L170 64M235 64L236 65L235 64M247 64L248 65L247 64M371 64L372 65L371 64M400 64L401 65L400 64M51 65L52 66L51 65M68 65L69 66L68 65M75 65L76 66L75 65M132 65L133 66L132 65M171 65L172 66L171 65M372 65L373 66L372 65M50 66L51 67L50 66M67 66L68 67L67 66M76 66L77 67L76 66M133 66L134 67L133 66M161.333 66.6667L161.667 67.3333L161.333 66.6667M172 66L173 67L172 66M201 66L202 67L201 66M373 66L374 67L373 66M49 67L50 68L49 67z"/>
<path style="fill:#565656; stroke:none;" d="M60 67L61 68L60 67M65 67L66 68L65 67z"/>
<path style="fill:#9e9e9e; stroke:none;" d="M77 67L78 68L77 67M134 67L135 68L134 67M173 67L174 68L173 67M200 67L201 68L200 67M237 67L238 68L237 67M249 67L250 68L249 67M374 67L375 68L374 67M78 68L79 69L78 68M114.333 68.6667L114.667 69.3333L114.333 68.6667M136 68L137 69L136 68M159 68L160 69L159 68M175 68L176 69L175 68M198 68L199 69L198 68M376 68L377 69L376 68M399 68L400 69L399 68M11 69L11 72L12 72L11 69M79 69L80 70L79 69M138 69L139 70L138 69M157 69L158 70L157 69M177 69L178 70L177 69M196 69L197 70L196 69M238 69L239 70L238 69M247.667 69.3333L248.333 69.6667L247.667 69.3333M331 69L332 70L331 69M378 69L379 70L378 69M396.667 69.3333L397.333 69.6667L396.667 69.3333M80 70L81 71L80 70M141 70L142 71L141 70M153.667 70.3333L154.333 70.6667L153.667 70.3333M180.667 70.3333L181.333 70.6667L180.667 70.3333M192.667 70.3333L193.333 70.6667L192.667 70.3333M216 70L216 71L224 71L216 70M239 70L239 71L243 71L239 70M303 70L303 71L310 71L303 70M381.667 70.3333L382.333 70.6667L381.667 70.3333M392 70L392 71L395 71L392 70M407 70L407 71L415 71L407 70M435 70L435 71L443 71L435 70M60 71L54 78L60 71z"/>
<path style="fill:#089aa0; stroke:none;" d="M18 121L61 112.13L106 121C106.756 115.65 102.62 112.789 99.2855 109C91.1841 99.7933 82.6156 90.7233 73.9961 82C71.2193 79.1897 66.3564 72.2068 62 72.2068C58.8301 72.2068 56.023 75.9926 54 78.0008C47.4595 84.4934 41.491 91.4767 34.9992 98C29.6354 103.39 16.8362 112.763 18 121z"/>
<path style="fill:#9e9e9e; stroke:none;" d="M63 71L64 72L63 71M81 71L82 72L81 71M64 72L65 73L64 72M115 72L115 75L116 75L115 72M65 73L66 74L65 73M10.3333 74.6667L10.6667 75.3333L10.3333 74.6667M66 74L67 75L66 74M67 75L68 76L67 75M39 76L40 77L39 76M38 77L39 78L38 77M116 77L116 80L117 80L116 77M37 78L38 79L37 78M9.33333 79.6667L9.66667 80.3333L9.33333 79.6667M36 79L37 80L36 79M35 80L36 81L35 80M91 80L92 81L91 80M34 81L35 82L34 81M92 81L93 82L92 81M33 82L34 83L33 82M93 82L94 83L93 82M117.333 82.6667L117.667 83.3333L117.333 82.6667M32 83L33 84L32 83M94 83L95 84L94 83M8.33333 84.6667L8.66667 85.3333L8.33333 84.6667M31 84L32 85L31 84M95 84L96 85L95 84M96 85L97 86L96 85M97 86L98 87L97 86M98 87L99 88L98 87M118.333 87.6667L118.667 88.3333L118.333 87.6667M99 88L100 89L99 88M7.33333 89.6667L7.66667 90.3333L7.33333 89.6667M80 89L81 90L80 89M100 89L101 90L100 89M81 90L82 91L81 90M41 91L42 92L41 91M82 91L83 92L82 91M40 92L41 93L40 92M83 92L84 93L83 92M119.333 92.6667L119.667 93.3333L119.333 92.6667M6 93L6 96L7 96L6 93M21 93L22 94L21 93M39 93L40 94L39 93M84 93L85 94L84 93M20 94L21 95L20 94M38 94L39 95L38 94M85 94L86 95L85 94M19 95L20 96L19 95M37 95L38 96L37 95M18 96L19 97L18 96M36 96L37 97L36 96M17 97L18 98L17 97M35 97L36 98L35 97M109 97L110 98L109 97M120.333 97.6667L120.667 98.3333L120.333 97.6667M5 98L5 101L6 101L5 98M16 98L17 99L16 98M110 98L111 99L110 98M15 99L16 100L15 99M111 99L112 100L111 99M14 100L15 101L14 100M112 100L113 101L112 100M13 101L14 102L13 101M113 101L114 102L113 101M121 101L121 104L122 104L121 101M12 102L13 103L12 102M114 102L115 103L114 102M4 103L4 107L5 107L4 103M115 103L116 104L115 103M116 104L117 105L116 104M117 105L118 106L117 105M118 106L119 107L118 106M121 106L122 107L121 106M5.66667 107.333L6.33333 107.667L5.66667 107.333M98 108L99 109L98 108M99 109L100 110L99 109M23 110L24 111L23 110M100 110L101 111L100 110M22 111L23 112L22 111M101 111L102 112L101 111M21 112L22 113L21 112M57.6667 112.333L58.3333 112.667L57.6667 112.333M65 112L66 113L65 112M102 112L103 113L102 112M20 113L21 114L20 113M53 113L54 114L53 113M70 113L71 114L70 113M103 113L104 114L103 113M19 114L20 115L19 114M48 114L49 115L48 114M74.6667 114.333L75.3333 114.667L74.6667 114.333M18 115L19 116L18 115M43.6667 115.333L44.3333 115.667L43.6667 115.333M79.6667 115.333L80.3333 115.667L79.6667 115.333M17 116L18 117L17 116M38.6667 116.333L39.3333 116.667L38.6667 116.333M84.6667 116.333L85.3333 116.667L84.6667 116.333M33.6667 117.333L34.3333 117.667L33.6667 117.333M89 117L90 118L89 117M16.3333 118.667L16.6667 119.333L16.3333 118.667M29 118L30 119L29 118M94 118L95 119L94 118M107 118L108 119L107 118M24 119L25 120L24 119M98.6667 119.333L99.3333 119.667L98.6667 119.333M17 120L18 121L17 120M19.6667 120.333L20.3333 120.667L19.6667 120.333M103.667 120.333L104.333 120.667L103.667 120.333M106 120L107 121L106 120z"/>
</svg>
