<?xml version="1.0" standalone="yes"?>
<svg xmlns="http://www.w3.org/2000/svg" width="802" height="228">
<path style="fill:#ffffff; stroke:none;" d="M0 0L0 228L802 228L802 0L0 0z"/>
<path style="fill:#a5a0b1; stroke:none;" d="M39 7L40 8L39 7z"/>
<path style="fill:#6019eb; stroke:none;" d="M40.608 8.06714C35.1065 12.1503 52.4013 26.9404 55.1698 30C70.6116 47.0659 87.3884 62.9341 102.83 80C106.976 84.5814 114.608 97.0245 121.985 92.392C130.889 86.8016 139.319 74.8985 146.285 67C157.455 54.3368 169.576 42.3594 181.09 30C183.825 27.063 201.966 12.5717 196.239 8.06714C192.649 5.24306 180.187 9.96291 176 10.8002C157.727 14.4543 137.618 21.9823 119 22.5401C100.611 23.0911 79.0493 14.6094 61 11C56.722 10.1445 44.2913 5.33351 40.608 8.06714z"/>
<path style="fill:#a5a0b1; stroke:none;" d="M44.6667 7.33333L45.3333 7.66667L44.6667 7.33333M190 7L190 8L193 8L190 7z"/>
<path style="fill:#565656; stroke:none;" d="M48 8L49 9L48 8z"/>
<path style="fill:#a5a0b1; stroke:none;" d="M49.6667 8.33333L50.3333 8.66667L49.6667 8.33333M186.667 8.33333L187.333 8.66667L186.667 8.33333z"/>
<path style="fill:#565656; stroke:none;" d="M197 8L198 9L197 8z"/>
<path style="fill:#a5a0b1; stroke:none;" d="M38 9L39 10L38 9z"/>
<path style="fill:#565656; stroke:none;" d="M53 9L54 10L53 9z"/>
<path style="fill:#a5a0b1; stroke:none;" d="M54.6667 9.33333L55.3333 9.66667L54.6667 9.33333M181.667 9.33333L182.333 9.66667L181.667 9.33333z"/>
<path style="fill:#565656; stroke:none;" d="M38 10L39 11L38 10M58 10L59 11L58 10z"/>
<path style="fill:#a5a0b1; stroke:none;" d="M59.6667 10.3333L60.3333 10.6667L59.6667 10.3333M176.667 10.3333L177.333 10.6667L176.667 10.3333M198 10L199 11L198 10M38 11L39 12L38 11M63.6667 11.3333L64.3333 11.6667L63.6667 11.3333M171.667 11.3333L172.333 11.6667L171.667 11.3333M68.6667 12.3333L69.3333 12.6667L68.6667 12.3333M166.667 12.3333L167.333 12.6667L166.667 12.3333M197 12L198 13L197 12M73.6667 13.3333L74.3333 13.6667L73.6667 13.3333M162 13L163 14L162 13z"/>
<path style="fill:#565656; stroke:none;" d="M196 13L197 14L196 13M77 14L78 15L77 14z"/>
<path style="fill:#a5a0b1; stroke:none;" d="M78.6667 14.3333L79.3333 14.6667L78.6667 14.3333M157.667 14.3333L158.333 14.6667L157.667 14.3333z"/>
<path style="fill:#565656; stroke:none;" d="M82 15L83 16L82 15z"/>
<path style="fill:#a5a0b1; stroke:none;" d="M83.6667 15.3333L84.3333 15.6667L83.6667 15.3333M152.667 15.3333L153.333 15.6667L152.667 15.3333z"/>
<path style="fill:#565656; stroke:none;" d="M154 15L155 16L154 15z"/>
<path style="fill:#a5a0b1; stroke:none;" d="M87 16L87 17L90 17L87 16M147.667 16.3333L148.333 16.6667L147.667 16.3333z"/>
<path style="fill:#565656; stroke:none;" d="M149 16L150 17L149 16z"/>
<path style="fill:#a5a0b1; stroke:none;" d="M43 17L44 18L43 17M92.6667 17.3333L93.3333 17.6667L92.6667 17.3333M142 17L142 18L145 18L142 17M44 18L45 19L44 18M97.6667 18.3333L98.3333 18.6667L97.6667 18.3333M138.667 18.3333L139.333 18.6667L138.667 18.3333M45 19L46 20L45 19z"/>
<path style="fill:#565656; stroke:none;" d="M101 19L102 20L101 19z"/>
<path style="fill:#a5a0b1; stroke:none;" d="M102.667 19.3333L103.333 19.6667L102.667 19.3333M133.667 19.3333L134.333 19.6667L133.667 19.3333M46 20L47 21L46 20z"/>
<path style="fill:#565656; stroke:none;" d="M106 20L107 21L106 20z"/>
<path style="fill:#a5a0b1; stroke:none;" d="M107.667 20.3333L108.333 20.6667L107.667 20.3333M128.667 20.3333L129.333 20.6667L128.667 20.3333M47 21L48 22L47 21M111 21L111 22L114 22L111 21M123.667 21.3333L124.333 21.6667L123.667 21.3333z"/>
<path style="fill:#565656; stroke:none;" d="M125 21L126 22L125 21z"/>
<path style="fill:#a5a0b1; stroke:none;" d="M48 22L49 23L48 22M116 22L116 23L120 23L116 22z"/>
<path style="fill:#565656; stroke:none;" d="M120 22L121 23L120 22z"/>
<path style="fill:#a5a0b1; stroke:none;" d="M49 23L50 24L49 23M187 23L188 24L187 23M50 24L51 25L50 24M186 24L187 25L186 24z"/>
<path style="fill:#565656; stroke:none;" d="M51 25L52 26L51 25z"/>
<path style="fill:#a5a0b1; stroke:none;" d="M185 25L186 26L185 25z"/>
<path style="fill:#565656; stroke:none;" d="M52 26L53 27L52 26z"/>
<path style="fill:#a5a0b1; stroke:none;" d="M184 26L185 27L184 26M183 27L184 28L183 27M182 28L183 29L182 28M181 29L182 30L181 29M180 30L181 31L180 30M218.667 30.3333L219.333 30.6667L218.667 30.3333M16 31L17 32L16 31z"/>
<path style="fill:#565656; stroke:none;" d="M17.3179 31.8904C14.0963 32.8662 15.3687 37.6993 15.8048 40C17.5123 49.0081 19.4569 58.0426 21.4244 67C24.4575 80.8088 30.1265 96.8591 30.1219 111C30.1166 127.453 23.2287 145.855 20 162C18.5441 169.28 16.2955 176.618 15.4583 183.999C15.1745 186.502 15.5279 190.448 19.0586 189.94C25.009 189.084 31.6078 179.391 36 175.576C52.5913 161.163 68.1144 145.229 84 130.039C88.5707 125.669 102.272 117.314 101.534 110.09C101.105 105.887 94.7717 101.763 92 99C82.3084 89.3389 72.0112 80.2361 62 70.9105C51.2707 60.9159 40.9993 50.4153 30 40.7145C27.1592 38.2091 21.7656 30.5433 17.3179 31.8904M179 31L180 32L179 31z"/>
<path style="fill:#a5a0b1; stroke:none;" d="M216 31L211 37L216 31z"/>
<path style="fill:#565656; stroke:none;" d="M216.981 32.0826C208.941 35.4529 202.163 45.0671 196 50.9606C181.843 64.498 167.157 77.5024 153 91.0394C148.728 95.1241 134.849 104.538 135.466 111C136.059 117.214 146.851 123.853 151 128C166.496 143.489 182.756 158.471 199 173.17C203.075 176.857 213.262 191.312 219.681 189.263C223.181 188.146 221.282 182.433 220.8 180C218.949 170.648 216.869 161.349 215 152C212.354 138.77 206.878 123.938 206.878 110.424C206.878 93.3244 213.907 73.7006 217.576 57C218.404 53.2277 225.458 28.5289 216.981 32.0826z"/>
<path style="fill:#a5a0b1; stroke:none;" d="M21 32L22 33L21 32z"/>
<path style="fill:#565656; stroke:none;" d="M178 32L179 33L178 32z"/>
<path style="fill:#a5a0b1; stroke:none;" d="M22 33L23 34L22 33M23 34L24 35L23 34M24 35L25 36L24 35M60 35L61 36L60 35M25 36L26 37L25 36M61 36L62 37L61 36M26 37L27 38L26 37M62 37L63 38L62 37M221 37L221 40L222 40L221 37M15.3333 38.6667L15.6667 39.3333L15.3333 38.6667M27 38L28 39L27 38M63 38L64 39L63 38M28 39L29 40L28 39M64 39L65 40L64 39M29 40L30 41L29 40M65 40L66 41L65 40M30 41L31 42L30 41M66 41L67 42L66 41M170 41L171 42L170 41M67 42L68 43L67 42M169 42L170 43L169 42M220 42L220 45L221 45L220 42M16.3333 43.6667L16.6667 44.3333L16.3333 43.6667M68 43L69 44L68 43M168 43L169 44L168 43z"/>
<path style="fill:#565656; stroke:none;" d="M69 44L70 45L69 44z"/>
<path style="fill:#a5a0b1; stroke:none;" d="M167 44L168 45L167 44M166 45L167 46L166 45M201 45L202 46L201 45M165 46L166 47L165 46M200 46L201 47L200 46M17 47L17 50L18 50L17 47M164 47L165 48L164 47M199 47L200 48L199 47M219.333 47.6667L219.667 48.3333L219.333 47.6667M163 48L164 49L163 48M198 48L199 49L198 48M39 49L40 50L39 49M162 49L163 50L162 49M197 49L198 50L197 49M40 50L41 51L40 50M196 50L197 51L196 50M41 51L42 52L41 51M195 51L196 52L195 51M18 52L18 55L19 55L18 52M42 52L43 53L42 52M194 52L195 53L194 52M218.333 52.6667L218.667 53.3333L218.333 52.6667M43 53L44 54L43 53M193 53L194 54L193 53M44 54L45 55L44 54M78 54L79 55L78 54M192 54L193 55L192 54M45 55L46 56L45 55M79 55L80 56L79 55M46 56L47 57L46 56M80 56L81 57L80 56M19.3333 57.6667L19.6667 58.3333L19.3333 57.6667M47 57L48 58L47 57M81 57L82 58L81 57M217.333 57.6667L217.667 58.3333L217.333 57.6667M82 58L83 59L82 58M154 58L155 59L154 58M83 59L84 60L83 59M153 59L154 60L153 59M84 60L85 61L84 60M152 60L153 61L152 60M85 61L86 62L85 61M151 61L152 62L151 61M216 61L216 64L217 64L216 61M20.3333 62.6667L20.6667 63.3333L20.3333 62.6667z"/>
<path style="fill:#565656; stroke:none;" d="M86 62L87 63L86 62z"/>
<path style="fill:#a5a0b1; stroke:none;" d="M150 62L151 63L150 62M183 62L184 63L183 62z"/>
<path style="fill:#565656; stroke:none;" d="M87 63L88 64L87 63z"/>
<path style="fill:#a5a0b1; stroke:none;" d="M149 63L150 64L149 63M182 63L183 64L182 63M148 64L149 65L148 64M181 64L182 65L181 64M56 65L57 66L56 65M147 65L148 66L147 65M180 65L181 66L180 65M57 66L58 67L57 66z"/>
<path style="fill:#565656; stroke:none;" d="M146 66L147 67L146 66z"/>
<path style="fill:#a5a0b1; stroke:none;" d="M179 66L180 67L179 66M215 66L215 69L216 69L215 66M21.3333 67.6667L21.6667 68.3333L21.3333 67.6667M58 67L59 68L58 67z"/>
<path style="fill:#565656; stroke:none;" d="M145 67L146 68L145 67z"/>
<path style="fill:#a5a0b1; stroke:none;" d="M178 67L179 68L178 67M59 68L60 69L59 68M177 68L178 69L177 68M60 69L61 70L60 69M176 69L177 70L176 69M61 70L62 71L61 70M175 70L176 71L175 70M22 71L22 74L23 74L22 71M62 71L63 72L62 71M174 71L175 72L174 71M214.333 71.6667L214.667 72.3333L214.333 71.6667M63 72L64 73L63 72M95 72L96 73L95 72M64 73L65 74L64 73M96 73L97 74L96 73M256 73L256 74L259 74L256 73z"/>
<path style="fill:#6019eb; stroke:none;" d="M283 132C273.487 134.253 264.174 138.464 255.004 132.297C244.895 125.499 240.528 99.5961 252.108 91.858C260.909 85.9771 272.975 90.5874 282 93C284.052 89.7376 288.33 83.3409 286.647 79.2747C282.662 69.6506 258.336 73.1361 251 75.1582C220.857 83.4673 218.452 133.615 245 147.673C254.625 152.769 266.639 152.788 277 150.324C280.204 149.562 286.074 148.339 287.303 144.775C288.69 140.753 284.915 135.293 283 132z"/>
<path style="fill:#565656; stroke:none;" d="M271 73L272 74L271 73z"/>
<path style="fill:#a5a0b1; stroke:none;" d="M272.667 73.3333L273.333 73.6667L272.667 73.3333M324 73L324 74L327 74L324 73z"/>
<path style="fill:#565656; stroke:none;" d="M327 73.4282C297.178 77.7102 283.546 116.615 303.329 139.985C311.743 149.926 326.439 153.343 339 151.711C370.082 147.671 383.938 106.102 361.699 83.1844C353.187 74.4118 338.714 71.7463 327 73.4282z"/>
<path style="fill:#a5a0b1; stroke:none;" d="M340.667 73.3333L341.333 73.6667L340.667 73.3333M397 73L397 74L401 74L397 73z"/>
<path style="fill:#565656; stroke:none;" d="M383 76L384 151C388.089 151 396.015 152.499 399.397 149.821C403.947 146.217 401 127.555 401 122C415.923 122.485 414.998 143.175 425.529 149.972C430.199 152.987 438.917 149.646 444 149L426 118C442.841 113.996 445.023 88.3991 431.96 78.8001C418.631 69.0061 397.927 73.1875 383 76z"/>
<path style="fill:#a5a0b1; stroke:none;" d="M417.667 73.3333L418.333 73.6667L417.667 73.3333M679 73L679 74L682 74L679 73z"/>
<path style="fill:#565656; stroke:none;" d="M706 131C692.689 137.322 673.968 137.985 669.684 120C667.61 111.297 667.58 93.849 678.004 90.5579C688.528 87.2351 710.476 99.0228 710.002 81.044C709.892 76.877 705.313 75.7457 702 74.8958C693.063 72.603 683.96 72.3545 675 74.7569C646.135 82.4966 640.183 129.854 665 146.034C674.988 152.546 687.688 152.944 699 150.547C702.414 149.824 708.992 148.579 710.303 144.775C711.736 140.621 707.717 134.615 706 131z"/>
<path style="fill:#a5a0b1; stroke:none;" d="M695.667 73.3333L696.333 73.6667L695.667 73.3333M97 74L98 75L97 74M252 74L253 75L252 74z"/>
<path style="fill:#565656; stroke:none;" d="M253 74L254 75L253 74M277 74L278 75L277 74z"/>
<path style="fill:#a5a0b1; stroke:none;" d="M278 74L279 75L278 74M320 74L321 75L320 74M345.667 74.3333L346.333 74.6667L345.667 74.3333M389 74L389 75L392 75L389 74M422.667 74.3333L423.333 74.6667L422.667 74.3333M675 74L676 75L675 74M700.667 74.3333L701.333 74.6667L700.667 74.3333M727 74L727 75L730 75L727 74z"/>
<path style="fill:#565656; stroke:none;" d="M720 77C724.252 99.9011 722 126.679 722 150L739 150L739 121L771 121L771 151L788 150L788 75L770 77L770 105L739 105L739 74L720 77z"/>
<path style="fill:#a5a0b1; stroke:none;" d="M739 74L739 105L740 105L739 74M98 75L99 76L98 75M249 75L250 76L249 75M281 75L282 76L281 75M317 75L318 76L317 75M349 75L350 76L349 75M384.667 75.3333L385.333 75.6667L384.667 75.3333M425 75L426 76L425 75M459 75L459 76L462 76L459 75z"/>
<path style="fill:#565656; stroke:none;" d="M452 77L453 150L491 150C494.731 150 502.302 151.423 505.397 148.972C508.585 146.447 508.061 135.568 503.852 134.318C494.161 131.441 480.12 134 470 134L470 120L501 120L501 105C494.54 105 476.342 108.135 471.603 103.397C468.867 100.661 470 94.5257 470 91L505 91L505 75L452 77z"/>
<path style="fill:#a5a0b1; stroke:none;" d="M505 75L505 81L506 81L505 75M513 75L513 79L514 79L513 75z"/>
<path style="fill:#565656; stroke:none;" d="M514 75L514 91L537 91L537 150L555 150L555 91L577 91L577 75L514 75z"/>
<path style="fill:#a5a0b1; stroke:none;" d="M577 75L577 78L578 78L577 75M594 75L594 76L597 76L594 75z"/>
<path style="fill:#565656; stroke:none;" d="M587 77L588 150L626 150C629.731 150 637.302 151.423 640.397 148.972C643.585 146.447 643.061 135.568 638.852 134.318C629.161 131.441 615.12 134 605 134L605 120L636 120L636 105C629.54 105 611.342 108.135 606.603 103.397C603.867 100.661 605 94.5257 605 91L640 91L640 75L587 77z"/>
<path style="fill:#a5a0b1; stroke:none;" d="M640 75L640 81L641 81L640 75M672 75L673 76L672 75M704 75L705 76L704 75M723.667 75.3333L724.333 75.6667L723.667 75.3333M776 75L776 76L779 76L776 75M788 75L788 150L789 150L789 98L788 75M23 76L23 79L24 79L23 76M99 76L100 77L99 76M213.333 76.6667L213.667 77.3333L213.333 76.6667M246 76L247 77L246 76z"/>
<path style="fill:#565656; stroke:none;" d="M283 76L284 77L283 76z"/>
<path style="fill:#a5a0b1; stroke:none;" d="M284 76L285 77L284 76M314 76L315 77L314 76M351 76L352 77L351 76M382 76L382 97L383 97L382 76M428 76L429 77L428 76M454.667 76.3333L455.333 76.6667L454.667 76.3333M589.667 76.3333L590.333 76.6667L589.667 76.3333M669 76L670 77L669 76M707 76L708 77L707 76M720 76L721 77L720 76M772.667 76.3333L773.333 76.6667L772.667 76.3333M100 77L101 78L100 77M136 77L137 78L136 77M244 77L245 78L244 77M286 77L287 78L286 77M312 77L313 78L312 77M451 77L451 85L452 85L451 77M586 77L586 85L587 85L586 77M667 77L668 78L667 77M709 77L710 78L709 77M769 77L769 98L770 98L769 77M101 78L102 79L101 78M135 78L136 79L135 78M287 78L288 79L287 78M355 78L356 79L355 78M431 78L432 79L431 78M710 78L711 79L710 78M102 79L103 80L102 79M134 79L135 80L134 79M241 79L242 80L241 79M309 79L310 80L309 79M357 79L358 80L357 79M664 79L665 80L664 79M720 79L720 104L721 104L720 79z"/>
<path style="fill:#565656; stroke:none;" d="M103 80L104 81L103 80z"/>
<path style="fill:#a5a0b1; stroke:none;" d="M133 80L134 81L133 80M164 80L165 81L164 80M287.333 80.6667L287.667 81.3333L287.333 80.6667M358 80L359 81L358 80M710.333 80.6667L710.667 81.3333L710.333 80.6667M24 81L24 84L25 84L24 81z"/>
<path style="fill:#565656; stroke:none;" d="M104 81L105 82L104 81z"/>
<path style="fill:#a5a0b1; stroke:none;" d="M132 81L133 82L132 81M163 81L164 82L163 81M212.333 81.6667L212.667 82.3333L212.333 81.6667M238 81L239 82L238 81M306 81L307 82L306 81M661 81L662 82L661 81M74 82L75 83L74 82M131 82L132 83L131 82M162 82L163 83L162 82M237 82L238 83L237 82M305 82L306 83L305 82M660 82L661 83L660 82M75 83L76 84L75 83M130 83L131 84L130 83M161 83L162 84L161 83M236 83L237 84L236 83z"/>
<path style="fill:#565656; stroke:none;" d="M286 83L287 84L286 83z"/>
<path style="fill:#a5a0b1; stroke:none;" d="M304 83L305 84L304 83M436 83L437 84L436 83M659 83L660 84L659 83M76 84L77 85L76 84M129 84L130 85L129 84M160 84L161 85L160 84M235 84L236 85L235 84M286 84L287 85L286 84M303 84L304 85L303 84M437 84L438 85L437 84M658 84L659 85L658 84M709 84L710 85L709 84M77 85L78 86L77 85z"/>
<path style="fill:#565656; stroke:none;" d="M128 85L129 86L128 85z"/>
<path style="fill:#a5a0b1; stroke:none;" d="M159 85L160 86L159 85M363 85L364 86L363 85M505 85L505 90L506 90L505 85M640 85L640 90L641 90L640 85M25.3333 86.6667L25.6667 87.3333L25.3333 86.6667M78 86L79 87L78 86z"/>
<path style="fill:#565656; stroke:none;" d="M127 86L128 87L127 86z"/>
<path style="fill:#a5a0b1; stroke:none;" d="M158 86L159 87L158 86M211.333 86.6667L211.667 87.3333L211.333 86.6667z"/>
<path style="fill:#565656; stroke:none;" d="M234 86L235 87L234 86M285 86L286 87L285 86z"/>
<path style="fill:#a5a0b1; stroke:none;" d="M364 86L365 87L364 86M438 86L439 87L438 86M513 86L513 91L514 91L513 86M708.333 86.6667L708.667 87.3333L708.333 86.6667M79 87L80 88L79 87M233 87L234 88L233 87M285 87L286 88L285 87M301 87L302 88L301 87M365 87L366 88L365 87M656 87L657 88L656 87M80 88L81 89L80 88M232 88L233 89L232 88M300 88L301 89L300 88M439.333 88.6667L439.667 89.3333L439.333 88.6667M577 88L577 91L578 91L577 88M655 88L656 89L655 88M81 89L82 90L81 89M260 89L260 90L268 90L260 89z"/>
<path style="fill:#565656; stroke:none;" d="M268 89L269 90L268 89z"/>
<path style="fill:#a5a0b1; stroke:none;" d="M284 89L285 90L284 89M323 89L324 90L323 89z"/>
<path style="fill:#ffffff; stroke:none;" d="M324.004 89.5332C315.431 91.6461 314.514 102.571 314.093 110C313.131 126.99 325.851 139.555 342.995 135.316C351.973 133.096 352 121.563 352 114C352 97.6307 341.644 85.1853 324.004 89.5332z"/>
<path style="fill:#a5a0b1; stroke:none;" d="M337 89L338 90L337 89M366 89L367 90L366 89M401 89L401 108L411 108L411 107L402 107L401 89z"/>
<path style="fill:#ffffff; stroke:none;" d="M402 89L402 107C406.719 107 414.461 108.432 418.566 105.682C422.803 102.844 421.565 93.7268 417.772 91.0895C413.437 88.0766 406.982 89 402 89z"/>
<path style="fill:#a5a0b1; stroke:none;" d="M414.667 89.3333L415.333 89.6667L414.667 89.3333M683 89L683 90L691 90L683 89M707 89L708 90L707 89M82 90L83 91L82 90M112 90L113 91L112 90M210 90L210 93L211 93L210 90M231 90L232 91L231 90M254.667 90.3333L255.333 90.6667L254.667 90.3333M272.667 90.3333L273.333 90.6667L272.667 90.3333z"/>
<path style="fill:#565656; stroke:none;" d="M283 90L284 91L283 90z"/>
<path style="fill:#a5a0b1; stroke:none;" d="M299 90L300 91L299 90M320 90L321 91L320 90M340 90L341 91L340 90M417 90L418 91L417 90M654 90L655 91L654 90M677.667 90.3333L678.333 90.6667L677.667 90.3333M696 90L697 91L696 90M26.3333 91.6667L26.6667 92.3333L26.3333 91.6667M113 91L114 92L113 91M251 91L252 92L251 91M276 91L277 92L276 91z"/>
<path style="fill:#565656; stroke:none;" d="M277 91L278 92L277 91z"/>
<path style="fill:#a5a0b1; stroke:none;" d="M283 91L284 92L283 91M318 91L319 92L318 91M342 91L343 92L342 91M367 91L368 92L367 91M470 91L470 104L471 104L470 91M536 91L536 130L537 130C537 118.828 540.311 101.274 536 91M605 91L605 104L606 104L605 91M674 91L675 92L674 91M699 91L700 92L699 91M706 91L707 92L706 91M114 92L115 93L114 92M230 92L231 93L230 92M279 92L280 93L279 92M282 92L283 93L282 92M298 92L299 93L298 92M317.333 92.6667L317.667 93.3333L317.333 92.6667M440 92L440 103L441 103L440 92M653 92L654 93L653 92M702 92L703 93L702 92M705 92L706 93L705 92M115 93L116 94L115 93z"/>
<path style="fill:#565656; stroke:none;" d="M230 93L231 94L230 93z"/>
<path style="fill:#a5a0b1; stroke:none;" d="M249 93L250 94L249 93M281 93L282 94L281 93M345 93L346 94L345 93M368 93L369 94L368 93M420 93L421 94L420 93M672 93L673 94L672 93M704 93L705 94L704 93M149 94L150 95L149 94M229.333 94.6667L229.667 95.3333L229.333 94.6667M297.333 94.6667L297.667 95.3333L297.333 94.6667M346 94L347 95L346 94M652.333 94.6667L652.667 95.3333L652.333 94.6667M148 95L149 96L148 95M209.333 95.6667L209.667 96.3333L209.333 95.6667z"/>
<path style="fill:#565656; stroke:none;" d="M248 95L249 96L248 95z"/>
<path style="fill:#a5a0b1; stroke:none;" d="M316.333 95.6667L316.667 96.3333L316.333 95.6667M347 95L348 96L347 95M369.333 95.6667L369.667 96.3333L369.333 95.6667M421 95L421 103L422 103L421 95M671.333 95.6667L671.667 96.3333L671.333 95.6667M27.3333 96.6667L27.6667 97.3333L27.3333 96.6667M147 96L148 97L147 96M248 96L249 97L248 96M146 97L147 98L146 97M228.333 97.6667L228.667 98.3333L228.333 97.6667M296.333 97.6667L296.667 98.3333L296.333 97.6667M348 97L349 98L348 97M651.333 97.6667L651.667 98.3333L651.333 97.6667M91 98L92 99L91 98M145 98L146 99L145 98M247 98L247 101L248 101L247 98M315.333 98.6667L315.667 99.3333L315.333 98.6667M349 98L350 99L349 98M370 98L370 101L371 101L370 98M452 98L452 145L453 145C453 131.735 457.11 110.177 452 98M587 98L587 145L588 145C588 131.735 592.11 110.176 587 98M670.333 98.6667L670.667 99.3333L670.333 98.6667M92 99L93 100L92 99M116 99L116 100L121 100L116 99M144 99L145 100L144 99z"/>
<path style="fill:#565656; stroke:none;" d="M228 99L229 100L228 99z"/>
<path style="fill:#a5a0b1; stroke:none;" d="M28 100L28 103L29 103L28 100M93 100L94 101L93 100M113 100L114 101L113 100z"/>
<path style="fill:#020202; stroke:none;" d="M114.015 100.742C101.401 105.695 109.999 125.374 122.985 120.258C135.54 115.311 126.629 95.7893 114.015 100.742z"/>
<path style="fill:#565656; stroke:none;" d="M122 100L123 101L122 100z"/>
<path style="fill:#a5a0b1; stroke:none;" d="M123 100L124 101L123 100M143 100L144 101L143 100M208.333 100.667L208.667 101.333L208.333 100.667M350 100L351 101L350 100M94 101L95 102L94 101M111 101L112 102L111 101z"/>
<path style="fill:#565656; stroke:none;" d="M124 101L125 102L124 101z"/>
<path style="fill:#a5a0b1; stroke:none;" d="M142 101L143 102L142 101M227 101L227 104L228 104L227 101M295 101L295 105L296 105L295 101M650 101L650 105L651 105L650 101M95 102L96 103L95 102M110 102L111 103L110 102M126 102L127 103L126 102M141 102L142 103L141 102z"/>
<path style="fill:#565656; stroke:none;" d="M246 102L247 103L246 102z"/>
<path style="fill:#a5a0b1; stroke:none;" d="M314 102L314 107L315 107L314 102M351 102L351 105L352 105L351 102M669 102L669 107L670 107L669 102M96 103L97 104L96 103M109 103L110 104L109 103M246 103L246 107L247 107L246 103M371 103L371 108L372 108L371 103M97 104L98 105L97 104z"/>
<path style="fill:#565656; stroke:none;" d="M127 104L128 105L127 104M227 104L228 105L227 104z"/>
<path style="fill:#a5a0b1; stroke:none;" d="M420 104L421 105L420 104M471 104L471 105L501 105L471 104M606 104L606 105L636 105L606 104M29 105L29 108L30 108L29 105M98 105L99 106L98 105z"/>
<path style="fill:#565656; stroke:none;" d="M108 105L109 106L108 105z"/>
<path style="fill:#a5a0b1; stroke:none;" d="M128 105L129 106L128 105M207.333 105.667L207.667 106.333L207.333 105.667M439.333 105.667L439.667 106.333L439.333 105.667M501 105L501 119L502 119L501 105M636 105L636 119L637 119L636 105M99 106L100 107L99 106z"/>
<path style="fill:#565656; stroke:none;" d="M128 106L129 107L128 106z"/>
<path style="fill:#a5a0b1; stroke:none;" d="M417 106L418 107L417 106M107 107L108 108L107 107M352 107L352 120L353 120L352 107z"/>
<path style="fill:#565656; stroke:none;" d="M107 108L107 113L108 113L107 108z"/>
<path style="fill:#a5a0b1; stroke:none;" d="M129 108L129 113L130 113L129 108M226 108L226 117L227 117L226 108M294 108L294 117L295 117L294 108M438 108L439 109L438 108M649 108L649 116L650 116L649 108M30.3333 110.667L30.6667 111.333L30.3333 110.667M206 110L207 111L206 110M437 110L438 111L437 110M436 111L437 112L436 111M435 112L436 113L435 112M101 113L102 114L101 113M107 113L108 114L107 113M383 113L383 151L384 151C384 140.089 387.211 123.036 383 113M434 113L435 114L434 113M29 114L29 117L30 117L29 114M100 114L101 115L100 114M207.333 114.667L207.667 115.333L207.333 114.667M433 114L434 115L433 114M99 115L100 116L99 115z"/>
<path style="fill:#565656; stroke:none;" d="M108 115L109 116L108 115z"/>
<path style="fill:#a5a0b1; stroke:none;" d="M128 115L129 116L128 115M432 115L433 116L432 115M98 116L99 117L98 116M246 116L246 120L247 120L246 116M314 116L314 120L315 120L314 116M430 116L431 117L430 116M669 116L669 120L670 120L669 116M97 117L98 118L97 117M109 117L110 118L109 117M127 117L128 118L127 117M371 117L371 122L372 122L371 117M96 118L97 119L96 118z"/>
<path style="fill:#565656; stroke:none;" d="M110 118L111 119L110 118z"/>
<path style="fill:#a5a0b1; stroke:none;" d="M126 118L127 119L126 118M426 118L427 119L426 118M28.3333 119.667L28.6667 120.333L28.3333 119.667M111 119L112 120L111 119M125 119L126 120L125 119M142 119L143 120L142 119M208.333 119.667L208.667 120.333L208.333 119.667z"/>
<path style="fill:#565656; stroke:none;" d="M113 120L114 121L113 120z"/>
<path style="fill:#a5a0b1; stroke:none;" d="M123 120L124 121L123 120M143 120L144 121L143 120M227 120L227 124L228 124L227 120M295 120L295 124L296 124L295 120M426 120L427 121L426 120M470 120L470 134L471 134L470 120M605 120L605 134L606 134L605 120M650 120L650 124L651 124L650 120M115 121L116 122L115 121z"/>
<path style="fill:#565656; stroke:none;" d="M116 121L116 122L120 122L116 121z"/>
<path style="fill:#a5a0b1; stroke:none;" d="M120.667 121.333L121.333 121.667L120.667 121.333M144 121L145 122L144 121M427 121L428 122L427 121M739 121L739 149L740 149L739 121M770 121L770 151L771 151L770 121M145 122L146 123L145 122M247 122L248 123L247 122M315 122L316 123L315 122M401 122L401 150L402 150L401 122M670.333 122.667L670.667 123.333L670.333 122.667M146 123L147 124L146 123z"/>
<path style="fill:#565656; stroke:none;" d="M247 123L248 124L247 123z"/>
<path style="fill:#a5a0b1; stroke:none;" d="M351 123L351 126L352 126L351 123M408 123L409 124L408 123M428 123L429 124L428 123M27.3333 124.667L27.6667 125.333L27.3333 124.667M147 124L148 125L147 124M209.333 124.667L209.667 125.333L209.333 124.667M316.333 124.667L316.667 125.333L316.333 124.667M370 124L370 127L371 127L370 124M409.333 124.667L409.667 125.333L409.333 124.667M429 124L430 125L429 124M721 124L721 150L722 150L721 124M148 125L149 126L148 125z"/>
<path style="fill:#565656; stroke:none;" d="M228 125L229 126L228 125z"/>
<path style="fill:#a5a0b1; stroke:none;" d="M248 125L249 126L248 125M296 125L296 128L297 128L296 125M651 125L651 128L652 128L651 125M671 125L672 126L671 125M87 126L88 127L87 126M149 126L150 127L149 126M228.333 126.667L228.667 127.333L228.333 126.667M249 126L250 127L249 126M317 126L318 127L317 126M410 126L411 127L410 126M430 126L431 127L430 126M672 126L673 127L672 126M86 127L87 128L86 127z"/>
<path style="fill:#565656; stroke:none;" d="M114 127L113 129L114 127z"/>
<path style="fill:#6019eb; stroke:none;" d="M115 128.086C107.516 131.177 101.293 141.222 95.9105 147C82.124 161.8 68.2192 176.614 54.0039 191C50.88 194.162 35.0578 207.801 38.0864 212.396C39.8016 214.998 44.6168 213.463 47 212.999C55.3443 211.374 63.7152 209.786 72 207.881C85.8378 204.7 102.796 198.761 117 199.129C127.239 199.394 137.98 203.196 148 205.2C159.015 207.403 169.985 209.797 181 212C184.468 212.694 190.272 214.986 193.677 213.382C200.526 210.156 183.397 195.408 181.001 193C164.541 176.46 149.486 158.519 133 142C129.213 138.205 121.325 125.475 115 128.086z"/>
<path style="fill:#a5a0b1; stroke:none;" d="M150 127L151 128L150 127z"/>
<path style="fill:#565656; stroke:none;" d="M249 127L250 128L249 127z"/>
<path style="fill:#a5a0b1; stroke:none;" d="M350.333 127.667L350.667 128.333L350.333 127.667M431 127L432 128L431 127M85 128L86 129L85 128M151 128L152 129L151 128M210 128L210 131L211 131L210 128M250 128L251 129L250 128M318 128L319 129L318 128M369.333 128.667L369.667 129.333L369.333 128.667M411 128L412 129L411 128M673 128L674 129L673 128M26.3333 129.667L26.6667 130.333L26.3333 129.667M84 129L85 130L84 129M112 129L113 130L112 129M229.333 129.667L229.667 130.333L229.333 129.667M251 129L252 130L251 129M297.333 129.667L297.667 130.333L297.333 129.667M319 129L320 130L319 129M412.333 129.667L412.667 130.333L412.333 129.667M432 129L433 130L432 129M652.333 129.667L652.667 130.333L652.333 129.667M674 129L675 130L674 129M83 130L84 131L83 130M111 130L112 131L111 130M252 130L253 131L252 130M320 130L321 131L320 130M349.333 130.667L349.667 131.333L349.333 130.667M433 130L434 131L433 130M675 130L676 131L675 130M82 131L83 132L82 131M110 131L111 132L110 131z"/>
<path style="fill:#565656; stroke:none;" d="M230 131L231 132L230 131z"/>
<path style="fill:#a5a0b1; stroke:none;" d="M253 131L254 132L253 131z"/>
<path style="fill:#565656; stroke:none;" d="M282 131L283 132L282 131z"/>
<path style="fill:#a5a0b1; stroke:none;" d="M321 131L322 132L321 131M368 131L369 132L368 131M413 131L414 132L413 131M676 131L677 132L676 131M81 132L82 133L81 132M109 132L110 133L109 132M230 132L231 133L230 132z"/>
<path style="fill:#565656; stroke:none;" d="M254 132L255 133L254 132z"/>
<path style="fill:#a5a0b1; stroke:none;" d="M280 132L281 133L280 132M283 132L284 133L283 132M298 132L299 133L298 132M322 132L323 133L322 132M434 132L435 133L434 132M653 132L654 133L653 132M703 132L704 133L703 132M706 132L707 133L706 132M80 133L81 134L80 133M108 133L109 134L108 133M211 133L211 136L212 136L211 133M256 133L257 134L256 133M277 133L278 134L277 133M284 133L285 134L284 133M324 133L325 134L324 133M348 133L349 134L348 133M367 133L368 134L367 133M414 133L415 134L414 133M435 133L436 134L435 133M679 133L680 134L679 133M700 133L701 134L700 133M707 133L708 134L707 133M25.3333 134.667L25.6667 135.333L25.3333 134.667M107 134L108 135L107 134z"/>
<path style="fill:#565656; stroke:none;" d="M125 134L126 135L125 134z"/>
<path style="fill:#a5a0b1; stroke:none;" d="M231 134L232 135L231 134M259 134L260 135L259 134M274 134L275 135L274 134z"/>
<path style="fill:#565656; stroke:none;" d="M275 134L276 135L275 134M284 134L285 135L284 134z"/>
<path style="fill:#a5a0b1; stroke:none;" d="M299 134L300 135L299 134M326 134L327 135L326 134M346 134L347 135L346 134M415.333 134.667L415.667 135.333L415.333 134.667M506 134L507 135L506 134M641 134L642 135L641 134M654 134L655 135L654 134M682 134L683 135L682 134M697.667 134.333L698.333 134.667L697.667 134.333M106 135L107 136L106 135M126 135L127 136L126 135z"/>
<path style="fill:#565656; stroke:none;" d="M263 135L264 136L263 135z"/>
<path style="fill:#a5a0b1; stroke:none;" d="M264 135L264 136L270 136L264 135M285 135L286 136L285 135M328.667 135.333L329.333 135.667L328.667 135.333M342.667 135.333L343.333 135.667L342.667 135.333M366 135L367 136L366 135M436 135L437 136L436 135M686 135L686 136L693 136L686 135M708.333 135.667L708.667 136.333L708.333 135.667M127 136L128 137L127 136M232 136L233 137L232 136z"/>
<path style="fill:#565656; stroke:none;" d="M285 136L286 137L285 136z"/>
<path style="fill:#a5a0b1; stroke:none;" d="M300 136L301 137L300 136M416 136L417 137L416 136M437 136L438 137L437 136M655 136L656 137L655 136M128 137L129 138L128 137M233 137L234 138L233 137M301 137L302 138L301 137M365 137L366 138L365 137M656 137L657 138L656 137M24 138L24 141L25 141L24 138M129 138L130 139L129 138M162 138L163 139L162 138M212.333 138.667L212.667 139.333L212.333 138.667M286 138L287 139L286 138M364 138L365 139L364 138M417 138L418 139L417 138M438 138L439 139L438 138M507 138L507 146L508 146L507 138M642 138L642 146L643 146L642 138M709 138L710 139L709 138M130 139L131 140L130 139M163 139L164 140L163 139M234 139L235 140L234 139M363 139L364 140L363 139M418.333 139.667L418.667 140.333L418.333 139.667M439 139L440 140L439 139M657 139L658 140L657 139M131 140L132 141L131 140M164 140L165 141L164 140M235 140L236 141L235 140M287.333 140.667L287.667 141.333L287.333 140.667M303 140L304 141L303 140M658 140L659 141L658 140M710.333 140.667L710.667 141.333L710.333 140.667M132 141L133 142L132 141M165 141L166 142L165 141M236 141L237 142L236 141M304 141L305 142L304 141M419 141L420 142L419 141M440 141L441 142L440 141M659 141L660 142L659 141M70 142L71 143L70 142M133 142L134 143L133 142M166 142L167 143L166 142M237 142L238 143L237 142M305 142L306 143L305 142M441 142L442 143L441 142M660 142L661 143L660 142M23 143L23 146L24 146L23 143M69 143L70 144L69 143M167 143L168 144L167 143M213.333 143.667L213.667 144.333L213.333 143.667M238 143L239 144L238 143M288 143L288 146L289 146L288 143M306 143L307 144L306 143M420 143L421 144L420 143M661 143L662 144L661 143M711 143L711 146L712 146L711 143M68 144L69 145L68 144z"/>
<path style="fill:#565656; stroke:none;" d="M98 144L99 145L98 144z"/>
<path style="fill:#a5a0b1; stroke:none;" d="M168 144L169 145L168 144M239 144L240 145L239 144M358 144L359 145L358 144M421 144L422 145L421 144M442 144L443 145L442 144M662 144L663 145L662 144M67 145L68 146L67 145z"/>
<path style="fill:#565656; stroke:none;" d="M97 145L98 146L97 145z"/>
<path style="fill:#a5a0b1; stroke:none;" d="M169 145L170 146L169 145z"/>
<path style="fill:#565656; stroke:none;" d="M241 145L242 146L241 145z"/>
<path style="fill:#a5a0b1; stroke:none;" d="M309 145L310 146L309 145M357 145L358 146L357 145M443 145L444 146L443 145M66 146L67 147L66 146M96 146L97 147L96 146M242 146L243 147L242 146M355 146L356 147L355 146M422 146L423 147L422 146M665 146L666 147L665 146M65 147L66 148L65 147M95 147L96 148L95 147M244 147L245 148L244 147M285 147L286 148L285 147M312 147L313 148L312 147M444.333 147.667L444.667 148.333L444.333 147.667M667 147L668 148L667 147M708 147L709 148L708 147M22.3333 148.667L22.6667 149.333L22.3333 148.667M64 148L65 149L64 148M94 148L95 149L94 148M214.333 148.667L214.667 149.333L214.333 148.667M246 148L247 149L246 148z"/>
<path style="fill:#565656; stroke:none;" d="M282 148L283 149L282 148z"/>
<path style="fill:#a5a0b1; stroke:none;" d="M283 148L284 149L283 148M314 148L315 149L314 148M351 148L352 149L351 148M423 148L424 149L423 148M669 148L670 149L669 148M705.667 148.333L706.333 148.667L705.667 148.333M63 149L64 150L63 149M93 149L94 150L93 149M248 149L249 150L248 149M280 149L281 150L280 149M317 149L318 150L317 149M349 149L350 150L349 149M424 149L425 150L424 149M440.667 149.333L441.333 149.667L440.667 149.333M506 149L507 150L506 149M641 149L642 150L641 149M671 149L672 150L671 149M703 149L704 150L703 149M62 150L63 151L62 150M92 150L93 151L92 150M251.667 150.333L252.333 150.667L251.667 150.333M276.667 150.333L277.333 150.667L276.667 150.333M320 150L321 151L320 150M345.667 150.333L346.333 150.667L345.667 150.333M399 150L400 151L399 150M434 150L434 151L437 151L434 150M538 150L538 151L541 151L538 150M550 150L550 151L553 151L550 150M674.667 150.333L675.333 150.667L674.667 150.333M699.667 150.333L700.333 150.667L699.667 150.333M723.667 150.333L724.333 150.667L723.667 150.333M735.667 150.333L736.333 150.667L735.667 150.333M784.667 150.333L785.333 150.667L784.667 150.333M91 151L92 152L91 151M256.667 151.333L257.333 151.667L256.667 151.333z"/>
<path style="fill:#565656; stroke:none;" d="M258 151L259 152L258 151z"/>
<path style="fill:#a5a0b1; stroke:none;" d="M270 151L270 152L273 152L270 151M324 151L324 152L327 152L324 151M340.667 151.333L341.333 151.667L340.667 151.333M388 151L388 152L394 152L388 151M679.667 151.333L680.333 151.667L679.667 151.333M693 151L693 152L696 152L693 151M90 152L91 153L90 152z"/>
<path style="fill:#565656; stroke:none;" d="M142 152L143 153L142 152z"/>
<path style="fill:#a5a0b1; stroke:none;" d="M21.3333 153.667L21.6667 154.333L21.3333 153.667M89 153L90 154L89 153M143 153L144 154L143 153M215.333 153.667L215.667 154.333L215.333 153.667M144 154L145 155L144 154M179 154L180 155L179 154M145 155L146 156L145 155M180 155L181 156L180 155M146 156L147 157L146 156M181 156L182 157L181 156M147 157L148 158L147 157M182 157L183 158L182 157M216 157L216 160L217 160L216 157M20.3333 158.667L20.6667 159.333L20.3333 158.667M148 158L149 159L148 158M183 158L184 159L183 158M52 159L53 160L52 159M149 159L150 160L149 159M184 159L185 160L184 159M51 160L52 161L51 160M150 160L151 161L150 160M185 160L186 161L185 160M50 161L51 162L50 161M186 161L187 162L186 161M19 162L19 165L20 165L19 162M49 162L50 163L49 162z"/>
<path style="fill:#565656; stroke:none;" d="M81 162L82 163L81 162z"/>
<path style="fill:#a5a0b1; stroke:none;" d="M187 162L188 163L187 162M217 162L217 165L218 165L217 162M48 163L49 164L48 163z"/>
<path style="fill:#565656; stroke:none;" d="M80 163L81 164L80 163z"/>
<path style="fill:#a5a0b1; stroke:none;" d="M47 164L48 165L47 164M79 164L80 165L79 164M46 165L47 166L46 165M78 165L79 166L78 165M45 166L46 167L45 166M77 166L78 167L77 166M18 167L18 170L19 170L18 167M44 167L45 168L44 167M76 167L77 168L76 167M218.333 167.667L218.667 168.333L218.333 167.667M75 168L76 169L75 168M74 169L75 170L74 169z"/>
<path style="fill:#565656; stroke:none;" d="M158 169L159 170L158 169z"/>
<path style="fill:#a5a0b1; stroke:none;" d="M73 170L74 171L73 170z"/>
<path style="fill:#565656; stroke:none;" d="M159 170L160 171L159 170z"/>
<path style="fill:#a5a0b1; stroke:none;" d="M72 171L73 172L72 171M160 171L161 172L160 171M197 171L198 172L197 171M17.3333 172.667L17.6667 173.333L17.3333 172.667M161 172L162 173L161 172M198 172L199 173L198 172M219.333 172.667L219.667 173.333L219.333 172.667M162 173L163 174L162 173M199 173L200 174L199 173M163 174L164 175L163 174M200 174L201 175L200 174M164 175L165 176L164 175M201 175L202 176L201 175M34 176L35 177L34 176M165 176L166 177L165 176M202 176L203 177L202 176M16.3333 177.667L16.6667 178.333L16.3333 177.667M33 177L34 178L33 177M203 177L204 178L203 177M220.333 177.667L220.667 178.333L220.333 177.667M32 178L33 179L32 178M204 178L205 179L204 178M31 179L32 180L31 179M205 179L206 180L205 179M30 180L31 181L30 180z"/>
<path style="fill:#565656; stroke:none;" d="M64 180L65 181L64 180z"/>
<path style="fill:#a5a0b1; stroke:none;" d="M206 180L207 181L206 180M29 181L30 182L29 181z"/>
<path style="fill:#565656; stroke:none;" d="M63 181L64 182L63 181z"/>
<path style="fill:#a5a0b1; stroke:none;" d="M15.3333 182.667L15.6667 183.333L15.3333 182.667M28 182L29 183L28 182M62 182L63 183L62 182M221.333 182.667L221.667 183.333L221.333 182.667M27 183L28 184L27 183M61 183L62 184L61 183M26 184L27 185L26 184M60 184L61 185L60 184M59 185L60 186L59 185M58 186L59 187L58 186z"/>
<path style="fill:#565656; stroke:none;" d="M174 186L175 187L174 186z"/>
<path style="fill:#a5a0b1; stroke:none;" d="M57 187L58 188L57 187z"/>
<path style="fill:#565656; stroke:none;" d="M175 187L176 188L175 187z"/>
<path style="fill:#a5a0b1; stroke:none;" d="M222 187L223 188L222 187M56 188L57 189L56 188M176 188L177 189L176 188M215 188L216 189L215 188M15 189L16 190L15 189M55 189L56 190L55 189M177 189L178 190L177 189M216 189L217 190L216 189M221 189L222 190L221 189M16 190L17 191L16 190M19 190L20 191L19 190M178 190L179 191L178 190M217 190L217 191L221 191L217 190M179 191L180 192L179 191M180 192L181 193L180 192M181 193L182 194L181 193M182 194L183 195L182 194M183 195L184 196L183 195z"/>
<path style="fill:#565656; stroke:none;" d="M47 198L48 199L47 198z"/>
<path style="fill:#a5a0b1; stroke:none;" d="M46 199L47 200L46 199M112.667 199.333L113.333 199.667L112.667 199.333M119.667 199.333L120.333 199.667L119.667 199.333M45 200L46 201L45 200M107 200L107 201L110 201L107 200M124.667 200.333L125.333 200.667L124.667 200.333M44 201L45 202L44 201z"/>
<path style="fill:#565656; stroke:none;" d="M102 201L103 202L102 201z"/>
<path style="fill:#a5a0b1; stroke:none;" d="M103.667 201.333L104.333 201.667L103.667 201.333M128 201L128 202L131 202L128 201M43 202L44 203L43 202z"/>
<path style="fill:#565656; stroke:none;" d="M97 202L98 203L97 202z"/>
<path style="fill:#a5a0b1; stroke:none;" d="M98.6667 202.333L99.3333 202.667L98.6667 202.333M133.667 202.333L134.333 202.667L133.667 202.333z"/>
<path style="fill:#565656; stroke:none;" d="M135 202L136 203L135 202z"/>
<path style="fill:#a5a0b1; stroke:none;" d="M42 203L43 204L42 203M93.6667 203.333L94.3333 203.667L93.6667 203.333M138.667 203.333L139.333 203.667L138.667 203.333M41 204L42 205L41 204M88.6667 204.333L89.3333 204.667L88.6667 204.333M143.667 204.333L144.333 204.667L143.667 204.333M40 205L41 206L40 205M83.6667 205.333L84.3333 205.667L83.6667 205.333M147 205L147 206L150 206L147 205z"/>
<path style="fill:#565656; stroke:none;" d="M192 205L193 206L192 205z"/>
<path style="fill:#a5a0b1; stroke:none;" d="M39 206L40 207L39 206z"/>
<path style="fill:#565656; stroke:none;" d="M78 206L79 207L78 206z"/>
<path style="fill:#a5a0b1; stroke:none;" d="M79.6667 206.333L80.3333 206.667L79.6667 206.333M152.667 206.333L153.333 206.667L152.667 206.333z"/>
<path style="fill:#565656; stroke:none;" d="M154 206L155 207L154 206z"/>
<path style="fill:#a5a0b1; stroke:none;" d="M193 206L194 207L193 206z"/>
<path style="fill:#565656; stroke:none;" d="M73 207L74 208L73 207z"/>
<path style="fill:#a5a0b1; stroke:none;" d="M74.6667 207.333L75.3333 207.667L74.6667 207.333M157.667 207.333L158.333 207.667L157.667 207.333M194 207L195 208L194 207M69.6667 208.333L70.3333 208.667L69.6667 208.333M162.667 208.333L163.333 208.667L162.667 208.333z"/>
<path style="fill:#565656; stroke:none;" d="M164 208L165 209L164 208z"/>
<path style="fill:#a5a0b1; stroke:none;" d="M195 208L196 209L195 208M64.6667 209.333L65.3333 209.667L64.6667 209.333M167.667 209.333L168.333 209.667L167.667 209.333z"/>
<path style="fill:#565656; stroke:none;" d="M169 209L170 210L169 209z"/>
<path style="fill:#a5a0b1; stroke:none;" d="M196 209L197 210L196 209M36.3333 210.667L36.6667 211.333L36.3333 210.667M59.6667 210.333L60.3333 210.667L59.6667 210.333M172.667 210.333L173.333 210.667L172.667 210.333z"/>
<path style="fill:#565656; stroke:none;" d="M196.333 210.667L196.667 211.333L196.333 210.667z"/>
<path style="fill:#a5a0b1; stroke:none;" d="M54 211L54 212L57 212L54 211M177.667 211.333L178.333 211.667L177.667 211.333z"/>
<path style="fill:#565656; stroke:none;" d="M49 212L50 213L49 212z"/>
<path style="fill:#a5a0b1; stroke:none;" d="M50.6667 212.333L51.3333 212.667L50.6667 212.333M182.667 212.333L183.333 212.667L182.667 212.333M196 212L197 213L196 212z"/>
<path style="fill:#565656; stroke:none;" d="M44 213L45 214L44 213z"/>
<path style="fill:#a5a0b1; stroke:none;" d="M45.6667 213.333L46.3333 213.667L45.6667 213.333M186 213L186 214L189 214L186 213M195 213L196 214L195 213M39 214L39 215L42 215L39 214M191 214L191 215L195 215L191 214z"/>
</svg>
